<?xml version="1.0" encoding="UTF-8"?>
<svg id="Layer_1" data-name="Layer 1" xmlns="http://www.w3.org/2000/svg" viewBox="0 0 250 250">
  <defs>
    <style>
      .cls-1 {
        fill: #a26a1f;
      }

      .cls-2 {
        fill: #fff;
      }
    </style>
  </defs>
  <rect class="cls-2" x="54.55" y="18.67" width="140.89" height="212.66" transform="translate(-51.78 125) rotate(-45)"/>
  <rect x="64.28" y="28.39" width="121.45" height="193.21" transform="translate(-51.78 125) rotate(-45)"/>
  <path d="M190.41,202.79v-29.69c-2.34.34-4.71.52-7.12.52-15.89,0-30.02-7.66-38.9-19.48v.86l33.2,33.2h-105.3l33.2-33.2v-52.95h-32.12l37.62-40.26h33.4v34.07c8.88-11.82,23.01-19.48,38.9-19.48,22.18,0,41.54,15,47.08,36.47l3.14,12.16h-38.99l-2.81-4.85c-1.74-3-4.97-4.87-8.42-4.87-5.36,0-9.72,4.36-9.72,9.72s4.36,9.72,9.72,9.72c3.46,0,6.69-1.87,8.42-4.87l2.81-4.85h39.12l-2.97,11.06v66.73h-40.26Z"/>
  <g>
    <path d="M66.6,173.62c-22.18,0-41.54-15-47.08-36.47l-3.14-12.16h.16l2.69-10.96V47.2h100.19l-31.75,33.98c16.29,7.86,27.56,24.55,27.56,43.82,0,26.81-21.81,48.62-48.62,48.62ZM58.18,129.85c1.74,3,4.97,4.87,8.42,4.87,5.36,0,9.72-4.36,9.72-9.72s-4.36-9.72-9.72-9.72c-3.46,0-6.69,1.87-8.42,4.87l-2.81,4.85,2.81,4.85Z"/>
    <path class="cls-2" d="M105.5,125c0,21.45-17.45,38.9-38.9,38.9-18.09,0-33.34-12.42-37.67-29.17h20.83c3.36,5.81,9.64,9.72,16.84,9.72,10.74,0,19.45-8.71,19.45-19.45s-8.71-19.45-19.45-19.45c-7.2,0-13.48,3.91-16.84,9.72h-20.83s0-.03.01-.05v-58.3h38.9v20.81h-18.09v12.21c5.1-2.46,10.81-3.85,16.84-3.85,21.45,0,38.9,17.45,38.9,38.9ZM77.57,56.93v20.81l19.45-20.81h-19.45Z"/>
  </g>
  <path class="cls-1" d="M220.96,134.72s0,.03-.01.05v58.3h-20.81v-33.02c-5.1,2.46-10.81,3.85-16.84,3.85-21.45,0-38.9-17.45-38.9-38.9s17.45-38.9,38.9-38.9c18.09,0,33.34,12.42,37.67,29.17h-20.83c-3.36-5.81-9.64-9.72-16.84-9.72-10.74,0-19.45,8.71-19.45,19.45s8.71,19.45,19.45,19.45c7.2,0,13.48-3.91,16.84-9.72h20.83ZM134.67,159.03v-87.52h-19.45l-19.45,20.81h19.45v66.71l-19.45,19.45h19.45s19.45,0,19.45,0h19.45s-19.45-19.45-19.45-19.45Z"/>
</svg>