<?xml version="1.0" encoding="UTF-8" standalone="no"?>
<!-- Created with Inkscape (http://www.inkscape.org/) -->

<svg
   width="754.53802"
   height="123.05454"
   viewBox="0 0 199.63818 32.558181"
   version="1.1"
   id="svg1"
   xml:space="preserve"
   inkscape:version="1.4.2 (f4327f4, 2025-05-13)"
   sodipodi:docname="go-mobile.svg"
   xmlns:inkscape="http://www.inkscape.org/namespaces/inkscape"
   xmlns:sodipodi="http://sodipodi.sourceforge.net/DTD/sodipodi-0.dtd"
   xmlns="http://www.w3.org/2000/svg"
   xmlns:svg="http://www.w3.org/2000/svg"><sodipodi:namedview
     id="namedview1"
     pagecolor="#ffffff"
     bordercolor="#000000"
     borderopacity="0.25"
     inkscape:showpageshadow="2"
     inkscape:pageopacity="0.0"
     inkscape:pagecheckerboard="0"
     inkscape:deskcolor="#d1d1d1"
     inkscape:document-units="mm"
     inkscape:zoom="1.0467522"
     inkscape:cx="376.88003"
     inkscape:cy="-14.807707"
     inkscape:window-width="2560"
     inkscape:window-height="1377"
     inkscape:window-x="2552"
     inkscape:window-y="-8"
     inkscape:window-maximized="1"
     inkscape:current-layer="layer1" /><defs
     id="defs1" /><g
     inkscape:label="Layer 1"
     inkscape:groupmode="layer"
     id="layer1"
     transform="translate(-5.220489,-132.15216)"><path
       style="fill:#ed3140;stroke:none"
       d="m 31.345017,140.53541 v 0.19495 l 8.188285,0.19496 13.257223,0.38992 c -2.017382,2.61316 -5.506377,1.75444 -8.578203,1.75463 -4.016699,2.6e-4 -8.072254,0.2887 -12.087468,0.38706 -2.758839,0.0676 -5.662303,-0.30732 -8.383244,0.19782 v 0.19496 l 19.690875,0.56743 7.213489,0.21241 c -1.310426,2.73918 -7.022587,1.55967 -9.747958,1.55967 -9.803736,0 -19.634397,0.58488 -29.438834,0.58488 v 0.19496 l 26.904365,0.39067 11.307631,0.19421 0.19496,1.75463 -26.514447,0.58488 v 0.19495 l 26.709406,0.58488 0.389918,1.75463 -29.438834,0.58488 v 0.19496 c 7.328927,0.15127 14.703044,0.58441 22.030386,0.58488 3.463604,2.2e-4 7.237481,-0.86645 9.747958,1.75463 l -20.860631,0.58488 v 0.19496 c 7.571515,0 15.705797,-0.0512 23.200141,1.05813 2.429671,0.35964 7.677755,0.63175 9.352626,-1.76727 0.361086,-0.5172 0.201331,-1.42481 0.200373,-2.02029 -0.0029,-1.81909 -0.194959,-3.63041 -0.194959,-5.45886 h -4.484061 v 4.87398 c -1.682861,0.22661 -3.088033,0.6501 -4.678871,-0.26641 -2.93023,-1.68816 -2.992238,-6.14948 -0.382395,-8.13082 1.397678,-1.06109 3.275546,-1.22684 4.866307,-0.50214 0.636515,0.28997 1.413031,1.20662 2.144551,1.1165 1.085793,-0.13377 2.259546,-1.89487 3.119346,-2.54996 -1.30912,-2.74905 -5.842278,-3.54158 -8.578203,-3.28121 -8.303465,0.79019 -16.808085,1.13113 -25.149732,1.13666 m 43.670853,-1.08627 c -1.6083,0.23041 -3.109405,0.69263 -4.484061,1.58299 -4.618173,2.99119 -5.078607,10.02143 -1.308299,13.89641 2.092384,2.15047 5.587744,3.08814 8.521788,2.70686 1.483297,-0.19276 3.018928,-0.64474 4.289102,-1.44685 4.619778,-2.91736 5.41888,-9.88449 1.718678,-13.89069 -2.13164,-2.30792 -5.682672,-3.28632 -8.737208,-2.84872 m 52.63897,0 c -1.50161,0.2156 -3.0037,0.67102 -4.2891,1.49378 -4.31542,2.76226 -5.28084,9.2332 -2.07069,13.23963 2.11987,2.6457 5.7601,3.88548 9.08922,3.45285 1.48331,-0.19276 3.01893,-0.64474 4.2891,-1.44685 4.36407,-2.75589 5.52776,-9.24237 2.26565,-13.31363 -2.17095,-2.70946 -5.89227,-3.9128 -9.28418,-3.42578 m -31.193462,0.30643 v 17.54632 h 4.679022 v -8.77316 h 0.19496 c 0.90687,2.10457 3.19382,7.72969 6.02552,6.95655 0.81472,-0.22244 1.22565,-1.21209 1.60497,-1.88761 0.97074,-1.72879 2.13196,-3.4353 2.8973,-5.2639 h 0.19496 v 6.43365 l 0.3126,2.3341 4.56138,0.20037 v -12.67234 c 0,-1.06594 0.4799,-3.70247 -0.20037,-4.56139 -0.54051,-0.68244 -3.93126,-0.52896 -4.55477,0 -0.78138,0.6629 -1.25375,1.93232 -1.76125,2.80676 -1.22139,2.10447 -2.65804,4.19782 -3.62149,6.43365 h -0.38992 l -3.7334,-6.62861 -1.79932,-2.72402 -4.410192,-0.20037 m 44.840612,0 v 17.54632 c 4.24635,0 10.10936,1.03013 14.03706,-0.84377 3.72233,-1.77593 2.98463,-6.71358 -0.38992,-8.31931 2.55066,-2.12233 2.9216,-6.18224 -0.58488,-7.65004 -3.80955,-1.59465 -9.00853,-0.7332 -13.06226,-0.7332 m 19.10599,0 v 17.54632 h 5.06894 v -17.54632 h -5.06894 m 8.57821,0 v 17.54632 h 13.25722 v -4.09414 h -8.18829 v -13.45218 h -5.06893 m 15.01185,0 v 17.54632 h 10.13788 c 0.91736,0 3.03382,0.39184 3.78154,-0.20037 0.65558,-0.51923 0.5741,-3.37698 -0.30116,-3.63683 -2.43014,-0.72148 -6.00856,-0.062 -8.54932,-0.062 v -3.11935 h 7.79837 v -3.70422 h -7.79837 v -2.92439 h 8.77316 v -3.89918 h -13.8421 m -37.62712,7.01853 v -3.31431 c 1.29896,0 3.50095,-0.42135 4.65782,0.22986 1.14523,0.64467 0.89346,2.23028 -0.18232,2.77787 -1.24568,0.63407 -3.11685,0.30658 -4.4755,0.30658 m -70.380255,-3.05316 c 6.040659,-0.60398 6.543787,9.15309 0.584878,9.64507 -5.748707,0.47462 -6.357937,-9.06784 -0.584878,-9.64507 m 52.638975,-0.007 c 5.87838,-0.77713 6.68987,8.87351 0.9748,9.62942 -5.92411,0.78356 -6.87041,-8.85001 -0.9748,-9.62942 m 17.74128,9.88365 v -3.31431 c 1.48701,0 4.37504,-0.55132 5.6278,0.33968 1.09674,0.78004 0.85288,2.31936 -0.36691,2.80043 -1.4684,0.57911 -3.69769,0.1742 -5.26089,0.1742 z"
       id="path3" /></g></svg>
