<?xml version="1.0" encoding="UTF-8" standalone="no"?>
<svg
   id="Layer_1"
   version="1.1"
   viewBox="0 0 400 399.99999"
   sodipodi:docname="cobalt-logo.svg"
   width="400"
   height="400"
   inkscape:version="1.4.2 (f4327f4, 2025-05-13)"
   inkscape:export-filename="cobalt-logo32.png"
   inkscape:export-xdpi="7.6799998"
   inkscape:export-ydpi="7.6799998"
   xmlns:inkscape="http://www.inkscape.org/namespaces/inkscape"
   xmlns:sodipodi="http://sodipodi.sourceforge.net/DTD/sodipodi-0.dtd"
   xmlns="http://www.w3.org/2000/svg"
   xmlns:svg="http://www.w3.org/2000/svg">
  <sodipodi:namedview
     id="namedview71"
     pagecolor="#ffffff"
     bordercolor="#000000"
     borderopacity="0.25"
     inkscape:showpageshadow="2"
     inkscape:pageopacity="0.0"
     inkscape:pagecheckerboard="0"
     inkscape:deskcolor="#d1d1d1"
     inkscape:zoom="1.8749003"
     inkscape:cx="12.267319"
     inkscape:cy="210.41119"
     inkscape:window-width="2560"
     inkscape:window-height="1377"
     inkscape:window-x="2552"
     inkscape:window-y="-8"
     inkscape:window-maximized="1"
     inkscape:current-layer="Layer_1" />
  <!-- Generator: Adobe Illustrator 29.6.1, SVG Export Plug-In . SVG Version: 2.1.1 Build 9)  -->
  <defs
     id="defs1">
    <style
       id="style1">
      .st0, .st1, .st2, .st3 {
        fill: #1d184c;
      }

      .st0, .st4 {
        opacity: .75;
      }

      .st5 {
        opacity: .5;
      }

      .st5, .st6, .st7, .st4, .st8, .st9, .st10, .st11 {
        fill: #164ca0;
      }

      .st12 {
        fill: #fff;
      }

      .st7 {
        fill-opacity: .75;
      }

      .st13 {
        fill: #f4f5f5;
      }

      .st2 {
        opacity: .25;
      }

      .st8 {
        fill-opacity: .5;
      }

      .st9 {
        opacity: .1;
      }

      .st10 {
        fill-opacity: .1;
      }

      .st11 {
        fill-opacity: .25;
      }

      .st3 {
        opacity: .9;
      }
    </style>
  </defs>
  <rect
     class="st12"
     x="146.85197"
     y="94.776627"
     width="106.29606"
     height="210.44675"
     id="rect1"
     style="stroke-width:1.32441" />
  <g
     id="g71"
     transform="matrix(1.2765278,0,0,1.2765278,72.34722,6.935e-6)">
    <g
       id="g1">
      <polygon
         class="st12"
         points="14.36,197.88 14.36,247.33 57.18,272.05 100,296.77 142.82,272.05 185.64,247.33 185.64,197.88 142.82,173.16 142.82,222.6 100,247.33 57.18,222.6 57.18,173.16 14.36,148.43 "
         id="polygon1" />
      <path
         class="st12"
         d="M 100,313.35 0,255.62 V 123.57 l 71.53,41.3 v 49.45 L 100,230.75 128.47,214.32 V 148.3 L 200,189.6 v 66.02 z M 28.71,239.04 100,280.2 171.29,239.04 v -32.87 l -14.11,-8.15 v 32.87 L 100,263.9 42.82,230.89 v -49.45 l -14.11,-8.15 v 65.74 z"
         id="path1" />
    </g>
    <polygon
       class="st13"
       points="153.53,179.34 174.94,191.73 174.94,241.15 100,284.41 25.06,241.15 25.06,166.98 46.47,179.34 46.47,228.79 100,259.69 153.53,228.79 "
       id="polygon2" />
    <g
       id="g17">
      <polygon
         class="st6"
         points="100,296.77 100,247.33 57.18,272.05 "
         id="polygon3" />
      <polygon
         class="st6"
         points="100,247.33 100,296.77 142.82,272.05 "
         id="polygon4" />
      <polygon
         class="st7"
         points="142.82,272.05 142.82,222.6 100,247.33 "
         id="polygon5" />
      <polygon
         class="st8"
         points="142.82,222.6 142.82,272.05 185.64,247.33 "
         id="polygon6" />
      <polygon
         class="st5"
         points="57.18,272.05 57.18,222.6 14.36,247.33 "
         id="polygon7" />
      <g
         id="g9">
        <polygon
           class="st6"
           points="57.18,222.6 57.18,272.05 100,247.33 "
           id="polygon8" />
        <polygon
           class="st2"
           points="57.18,222.6 57.18,272.05 100,247.33 "
           id="polygon9" />
      </g>
      <g
         id="g11">
        <polygon
           class="st4"
           points="14.36,247.33 57.18,222.6 14.36,197.88 "
           id="polygon10" />
        <polygon
           class="st0"
           points="14.36,247.33 57.18,222.6 14.36,197.88 "
           id="polygon11" />
      </g>
      <polygon
         class="st1"
         points="14.36,197.88 57.18,173.16 14.36,148.43 "
         id="polygon12" />
      <g
         id="g14">
        <polygon
           class="st4"
           points="57.18,173.16 14.36,197.88 57.18,222.6 "
           id="polygon13" />
        <polygon
           class="st3"
           points="57.18,173.16 14.36,197.88 57.18,222.6 "
           id="polygon14" />
      </g>
      <polygon
         class="st12"
         points="142.82,173.16 185.64,197.88 "
         id="polygon15" />
      <polygon
         class="st11"
         points="185.64,197.88 142.82,222.6 185.64,247.33 "
         id="polygon16" />
      <polygon
         class="st10"
         points="142.82,222.6 185.64,197.88 142.82,173.16 "
         id="polygon17" />
    </g>
    <polygon
       class="st13"
       points="153.53,179.34 174.94,191.73 174.94,241.15 100,284.41 25.06,241.15 25.06,166.98 46.47,179.34 46.47,228.79 100,259.69 153.53,228.79 "
       id="polygon18" />
    <g
       id="g33">
      <polygon
         class="st6"
         points="100,296.77 100,247.33 57.18,272.05 "
         id="polygon19" />
      <polygon
         class="st6"
         points="100,247.33 100,296.77 142.82,272.05 "
         id="polygon20" />
      <polygon
         class="st7"
         points="142.82,272.05 142.82,222.6 100,247.33 "
         id="polygon21" />
      <polygon
         class="st8"
         points="142.82,222.6 142.82,272.05 185.64,247.33 "
         id="polygon22" />
      <polygon
         class="st5"
         points="57.18,272.05 57.18,222.6 14.36,247.33 "
         id="polygon23" />
      <g
         id="g25">
        <polygon
           class="st6"
           points="57.18,222.6 57.18,272.05 100,247.33 "
           id="polygon24" />
        <polygon
           class="st2"
           points="57.18,222.6 57.18,272.05 100,247.33 "
           id="polygon25" />
      </g>
      <g
         id="g27">
        <polygon
           class="st4"
           points="14.36,247.33 57.18,222.6 14.36,197.88 "
           id="polygon26" />
        <polygon
           class="st0"
           points="14.36,247.33 57.18,222.6 14.36,197.88 "
           id="polygon27" />
      </g>
      <polygon
         class="st1"
         points="14.36,197.88 57.18,173.16 14.36,148.43 "
         id="polygon28" />
      <g
         id="g30">
        <polygon
           class="st4"
           points="57.18,173.16 14.36,197.88 57.18,222.6 "
           id="polygon29" />
        <polygon
           class="st3"
           points="57.18,173.16 14.36,197.88 57.18,222.6 "
           id="polygon30" />
      </g>
      <polygon
         class="st12"
         points="142.82,173.16 185.64,197.88 "
         id="polygon31" />
      <polygon
         class="st11"
         points="185.64,197.88 142.82,222.6 185.64,247.33 "
         id="polygon32" />
      <polygon
         class="st10"
         points="142.82,222.6 185.64,197.88 142.82,173.16 "
         id="polygon33" />
    </g>
    <g
       id="g34">
      <polygon
         class="st12"
         points="185.64,115.47 185.64,66.02 142.82,41.3 100,16.58 57.18,41.3 14.36,66.02 14.36,115.47 57.18,140.19 57.18,90.75 100,66.02 142.82,90.75 142.82,140.19 185.64,164.92 "
         id="polygon34" />
      <path
         class="st12"
         d="m 200,189.78 -71.53,-41.3 V 99.03 L 100,82.6 71.53,99.03 v 66.02 L 0,123.76 V 57.73 L 100,0 200,57.73 Z m -42.82,-57.88 14.11,8.15 V 74.31 L 100,33.15 28.71,74.31 v 32.87 l 14.11,8.15 V 82.46 L 100,49.45 157.18,82.46 v 49.45 z"
         id="path34" />
    </g>
    <polygon
       class="st13"
       points="46.47,134.01 25.06,121.62 25.06,72.2 100,28.94 174.94,72.2 174.94,146.37 153.53,134.01 153.53,84.57 100,53.66 46.47,84.57 "
       id="polygon35" />
    <g
       id="g50">
      <polygon
         class="st6"
         points="100,16.58 100,66.02 142.82,41.3 "
         id="polygon36" />
      <polygon
         class="st6"
         points="100,66.02 100,16.58 57.18,41.3 "
         id="polygon37" />
      <polygon
         class="st7"
         points="57.18,41.3 57.18,90.75 100,66.02 "
         id="polygon38" />
      <polygon
         class="st8"
         points="57.18,90.75 57.18,41.3 14.36,66.02 "
         id="polygon39" />
      <polygon
         class="st5"
         points="142.82,41.3 142.82,90.75 185.64,66.02 "
         id="polygon40" />
      <g
         id="g42">
        <polygon
           class="st6"
           points="142.82,90.75 142.82,41.3 100,66.02 "
           id="polygon41" />
        <polygon
           class="st2"
           points="142.82,90.75 142.82,41.3 100,66.02 "
           id="polygon42" />
      </g>
      <g
         id="g44">
        <polygon
           class="st4"
           points="185.64,66.02 142.82,90.75 185.64,115.47 "
           id="polygon43" />
        <polygon
           class="st0"
           points="185.64,66.02 142.82,90.75 185.64,115.47 "
           id="polygon44" />
      </g>
      <polygon
         class="st1"
         points="185.64,115.47 142.82,140.19 185.64,164.92 "
         id="polygon45" />
      <g
         id="g47">
        <polygon
           class="st4"
           points="142.82,140.19 185.64,115.47 142.82,90.75 "
           id="polygon46" />
        <polygon
           class="st3"
           points="142.82,140.19 185.64,115.47 142.82,90.75 "
           id="polygon47" />
      </g>
      <polygon
         class="st12"
         points="57.18,140.19 14.36,115.47 "
         id="polygon48" />
      <polygon
         class="st11"
         points="14.36,115.47 57.18,90.75 14.36,66.02 "
         id="polygon49" />
      <polygon
         class="st10"
         points="57.18,90.75 14.36,115.47 57.18,140.19 "
         id="polygon50" />
    </g>
    <polygon
       class="st9"
       points="57.18,173.16 57.18,140.19 14.36,115.47 14.36,148.43 "
       id="polygon51" />
    <polygon
       class="st9"
       points="142.82,140.19 142.82,173.16 185.64,197.88 185.64,164.92 "
       id="polygon52" />
    <polygon
       class="st13"
       points="46.47,166.74 25.06,154.35 25.06,72.2 100,28.94 174.94,72.2 174.94,191.73 153.53,179.34 153.53,84.57 100,53.66 46.47,84.57 "
       id="polygon53" />
    <polygon
       class="st9"
       points="142.82,140.19 142.82,173.16 185.64,197.88 185.64,164.92 "
       id="polygon54" />
    <polygon
       class="st9"
       points="57.18,173.16 57.18,140.19 14.36,115.47 14.36,148.43 "
       id="polygon55" />
    <g
       id="g70">
      <polygon
         class="st6"
         points="100,16.58 100,66.02 142.82,41.3 "
         id="polygon56" />
      <polygon
         class="st6"
         points="100,66.02 100,16.58 57.18,41.3 "
         id="polygon57" />
      <polygon
         class="st7"
         points="57.18,41.3 57.18,90.75 100,66.02 "
         id="polygon58" />
      <polygon
         class="st8"
         points="57.18,90.75 57.18,41.3 14.36,66.02 "
         id="polygon59" />
      <polygon
         class="st5"
         points="142.82,41.3 142.82,90.75 185.64,66.02 "
         id="polygon60" />
      <g
         id="g62">
        <polygon
           class="st6"
           points="142.82,90.75 142.82,41.3 100,66.02 "
           id="polygon61" />
        <polygon
           class="st2"
           points="142.82,90.75 142.82,41.3 100,66.02 "
           id="polygon62" />
      </g>
      <g
         id="g64">
        <polygon
           class="st4"
           points="185.64,66.02 142.82,90.75 185.64,115.47 "
           id="polygon63" />
        <polygon
           class="st0"
           points="185.64,66.02 142.82,90.75 185.64,115.47 "
           id="polygon64" />
      </g>
      <polygon
         class="st1"
         points="185.64,115.47 142.82,140.19 185.64,164.92 "
         id="polygon65" />
      <g
         id="g67">
        <polygon
           class="st4"
           points="142.82,140.19 185.64,115.47 142.82,90.75 "
           id="polygon66" />
        <polygon
           class="st3"
           points="142.82,140.19 185.64,115.47 142.82,90.75 "
           id="polygon67" />
      </g>
      <polygon
         class="st12"
         points="57.18,140.19 14.36,115.47 "
         id="polygon68" />
      <polygon
         class="st11"
         points="14.36,115.47 57.18,90.75 14.36,66.02 "
         id="polygon69" />
      <polygon
         class="st10"
         points="57.18,90.75 14.36,115.47 57.18,140.19 "
         id="polygon70" />
    </g>
  </g>
</svg>
